<?xml version="1.0" encoding="UTF-8" standalone="no"?>
<svg
   xmlns:dc="http://purl.org/dc/elements/1.1/"
   xmlns:cc="http://creativecommons.org/ns#"
   xmlns:rdf="http://www.w3.org/1999/02/22-rdf-syntax-ns#"
   xmlns:svg="http://www.w3.org/2000/svg"
   xmlns="http://www.w3.org/2000/svg"
   xmlns:sodipodi="http://sodipodi.sourceforge.net/DTD/sodipodi-0.dtd"
   xmlns:inkscape="http://www.inkscape.org/namespaces/inkscape"
   height="250"
   width="300"
   fill="#000000"
   version="1.1"
   x="0px"
   y="0px"
   viewBox="0 0 414.404 235.364"
   xml:space="preserve"
   id="svg967"
   sodipodi:docname="queue.svg"
   inkscape:version="1.0.1 (3bc2e813f5, 2020-09-07)"><metadata
     id="metadata973"><rdf:RDF><cc:Work
         rdf:about=""><dc:format>image/svg+xml</dc:format><dc:type
           rdf:resource="http://purl.org/dc/dcmitype/StillImage" /><dc:title></dc:title></cc:Work></rdf:RDF></metadata><defs
     id="defs971" /><sodipodi:namedview
     pagecolor="#ffffff"
     bordercolor="#666666"
     borderopacity="1"
     objecttolerance="10"
     gridtolerance="10"
     guidetolerance="10"
     inkscape:pageopacity="0"
     inkscape:pageshadow="2"
     inkscape:window-width="1920"
     inkscape:window-height="1057"
     id="namedview969"
     showgrid="false"
     inkscape:zoom="2.9366667"
     inkscape:cx="150"
     inkscape:cy="143.82366"
     inkscape:window-x="0"
     inkscape:window-y="23"
     inkscape:window-maximized="1"
     inkscape:current-layer="svg967"
     inkscape:document-rotation="0" /><g
     id="g965"
     transform="translate(0.29901119,-24.340239)"><path
       d="m 264.525,148.157 c 4.608,1.073 9.203,-0.476 12.255,-3.659 -0.103,-0.165 -0.208,-0.331 -0.307,-0.497 H 257.68 c 1.726,2.005 4.071,3.51 6.845,4.156 z"
       id="path913" /><path
       d="m 272.611,134.658 c -0.696,-2.779 0.104,-5.566 1.882,-7.523 l -1.499,-3.233 c -0.819,-0.388 -1.688,-0.701 -2.607,-0.914 -6.951,-1.619 -13.896,2.704 -15.516,9.654 -0.157,0.676 -0.242,1.352 -0.29,2.023 h 18.032 c -10e-4,-0.002 -0.002,-0.005 -0.002,-0.007 z"
       id="path915" /><path
       d="m 207.998,107.484 -12.021,-12.021 -1.192,1.192 c 0.189,0.311 0.374,0.624 0.543,0.947 l 11.276,11.275 z"
       id="path917" /><rect
       x="206.924"
       y="87.051003"
       transform="matrix(0.7071,-0.7071,0.7071,0.7071,-6.6658,175.0094)"
       width="1.971"
       height="17"
       id="rect919" /><rect
       x="204.08501"
       y="75.498001"
       transform="matrix(0.7071,-0.7071,0.7071,0.7071,-10.1742,174.1009)"
       width="1.973"
       height="47.667"
       id="rect921" /><path
       d="m 105.814,59.689 c 8.405,1.694 15.127,8.086 17.302,16.31 h 15.369 c 1.805,-0.562 3.723,-0.865 5.71,-0.865 1.987,0 3.904,0.303 5.709,0.865 h 75.834 v 58.666 h 5.332 V 75.998 H 414.404 V 0 h -378 v 45.023 c 3.979,-2.392 8.634,-3.771 13.605,-3.771 14.613,0 26.502,11.888 26.502,26.501 0,2.878 -0.468,5.648 -1.32,8.245 h 4.417 c 2.547,-9.632 11.333,-16.754 21.753,-16.754 0.186,0 3.205,0.232 3.205,0.232 z M 225.738,5.999 h 5.332 v 64 h -5.332 z"
       id="path923" /><path
       d="m 293.922,158.332 h -79.871 c 0.105,2.248 0.166,4.585 0.17,7.04 0,3.746 -0.125,7.785 -0.373,12.011 -0.227,3.924 -3.482,6.997 -7.414,6.997 -0.139,0 -0.283,-0.003 -0.424,-0.011 -1.994,-0.118 -3.811,-0.999 -5.131,-2.479 -0.336,-0.378 -0.627,-0.783 -0.877,-1.208 v 47.985 h 94.064 c -0.087,-0.551 -0.145,-1.111 -0.145,-1.686 v -68.649 z"
       id="path925" /><path
       d="m 334.135,226.98 c 0,0.575 -0.058,1.134 -0.145,1.685 h 80.414 v -70.333 h -79.705 c -0.19,0.072 -0.377,0.134 -0.564,0.198 z"
       id="path927" /><path
       d="m 344.847,141.999 h 68.89 v -5.333 h -69.014 c 0.108,1.185 0.183,2.391 0.182,3.638 -10e-4,0.552 -0.037,1.129 -0.058,1.695 z"
       id="path929" /><path
       d="m 275.392,141.999 c -0.324,-0.652 -0.629,-1.297 -0.905,-1.922 -0.553,-1.298 -0.975,-2.468 -1.282,-3.411 h -62.719 c 0.569,1.659 1.072,3.436 1.51,5.333 z"
       id="path931" /><path
       d="m 183.387,164.926 c 0,4.389 -0.146,9.123 -0.435,14.075 -0.063,1.076 -0.325,2.093 -0.74,3.026 v 48.418 c 0,4.229 3.43,7.655 7.656,7.655 4.228,0 7.658,-3.426 7.658,-7.655 v -92.858 c 0.367,0.753 0.738,1.616 1.104,2.625 1.744,4.837 3.213,12.775 3.207,25.165 0,3.415 -0.111,7.166 -0.35,11.284 -0.162,2.732 1.924,5.075 4.656,5.235 0.098,0.005 0.195,0.008 0.291,0.008 2.604,0 4.789,-2.031 4.943,-4.665 0.25,-4.294 0.367,-8.235 0.367,-11.862 -0.025,-18.69 -3.012,-29.033 -7.084,-35.254 -2.031,-3.087 -4.41,-5.066 -6.609,-6.163 -2.078,-1.047 -3.904,-1.298 -5.027,-1.321 -0.094,-0.005 -0.187,-0.015 -0.285,-0.015 h -17.761 c 5.624,9.002 8.382,22.843 8.409,42.302 z"
       id="path933" /><path
       d="m 179.344,185.55 c -1.434,1.036 -3.188,1.651 -5.082,1.651 -0.162,0 -0.33,-0.004 -0.496,-0.013 -2.338,-0.138 -4.467,-1.171 -6.012,-2.906 -0.395,-0.442 -0.736,-0.918 -1.029,-1.417 v 53.404 c 1.337,1.139 3.066,1.83 4.961,1.83 4.227,0 7.658,-3.426 7.658,-7.655 z"
       id="path935" /><circle
       cx="180.77699"
       cy="105.163"
       r="13.933"
       id="circle937" /><path
       d="m 147.221,164.311 c 0,5.136 -0.172,10.675 -0.51,16.468 -0.071,1.231 -0.368,2.396 -0.836,3.469 v 56.939 c 0,4.956 4.02,8.971 8.973,8.971 4.955,0 8.973,-4.015 8.973,-8.971 V 132.363 c 0.432,0.882 0.865,1.895 1.293,3.077 2.047,5.669 3.766,14.972 3.76,29.491 0,4.002 -0.129,8.398 -0.41,13.224 -0.188,3.201 2.256,5.947 5.457,6.135 0.115,0.006 0.228,0.01 0.342,0.01 3.053,0 5.613,-2.381 5.793,-5.467 0.293,-5.032 0.43,-9.651 0.43,-13.901 -0.029,-21.903 -3.529,-34.024 -8.301,-41.315 -2.381,-3.618 -5.168,-5.938 -7.748,-7.223 -2.432,-1.229 -4.572,-1.521 -5.891,-1.548 -0.109,-0.006 -0.219,-0.018 -0.332,-0.018 h -20.822 c 6.575,10.535 9.798,26.725 9.829,49.483 z"
       id="path939" /><path
       d="m 142.514,188.427 c -1.684,1.223 -3.745,1.95 -5.971,1.95 -0.189,0 -0.387,-0.006 -0.58,-0.016 -2.734,-0.162 -5.227,-1.37 -7.035,-3.401 -0.461,-0.517 -0.861,-1.073 -1.203,-1.656 v 62.707 c 1.566,1.336 3.595,2.147 5.814,2.147 4.955,0 8.975,-4.015 8.975,-8.971 z"
       id="path941" /><circle
       cx="144.19501"
       cy="94.364998"
       r="16.327999"
       id="circle943" /><path
       d="m 104.018,164.987 c 0,6.049 -0.203,12.572 -0.6,19.395 -0.017,0.284 -0.054,0.562 -0.09,0.84 v 68.321 c 0,5.799 4.703,10.498 10.498,10.498 5.799,0 10.5,-4.698 10.5,-10.498 V 126.209 c 0.504,1.032 1.014,2.218 1.514,3.6 2.393,6.634 4.406,17.518 4.398,34.507 0,4.682 -0.15,9.827 -0.48,15.473 -0.219,3.746 2.641,6.96 6.387,7.179 0.133,0.008 0.268,0.012 0.4,0.012 3.57,0 6.566,-2.786 6.777,-6.398 0.342,-5.888 0.502,-11.293 0.502,-16.266 -0.033,-25.629 -4.129,-39.812 -9.711,-48.342 -2.787,-4.233 -6.049,-6.948 -9.066,-8.451 -2.846,-1.437 -5.352,-1.78 -6.893,-1.812 -0.129,-0.007 -0.258,-0.019 -0.391,-0.019 H 91.805 c 0.04,0.059 0.08,0.114 0.119,0.174 8.101,12.379 12.056,31.716 12.094,59.121 z"
       id="path945" /><path
       d="m 99.395,192.649 c -2.124,1.886 -4.908,3.035 -7.951,3.035 -0.223,0 -0.455,-0.006 -0.684,-0.019 -3.221,-0.19 -6.154,-1.612 -8.287,-4.005 -0.541,-0.608 -1.014,-1.264 -1.416,-1.952 v 70.801 c 1.923,2.162 4.718,3.531 7.838,3.531 5.797,0 10.5,-4.698 10.5,-10.498 z"
       id="path947" /><circle
       cx="101.361"
       cy="81.747002"
       r="19.105"
       id="circle949" /><path
       d="m 8.576,191.684 c 0.158,0 0.316,-0.004 0.475,-0.014 4.412,-0.26 7.777,-4.044 7.519,-8.455 -0.393,-6.65 -0.568,-12.709 -0.568,-18.222 -0.035,-24.212 3.496,-37.815 6.963,-44.916 v 149.997 c 0,6.83 5.537,12.363 12.363,12.363 6.828,0 12.365,-5.533 12.365,-12.363 v -90.271 h 4.635 v 90.271 c 0,6.83 5.537,12.363 12.363,12.363 6.828,0 12.365,-5.533 12.365,-12.363 V 120.116 c 0.592,1.216 1.191,2.611 1.781,4.239 2.818,7.813 5.189,20.632 5.18,40.639 0,5.515 -0.176,11.573 -0.565,18.223 -0.26,4.411 3.109,8.195 7.52,8.454 0.158,0.009 0.316,0.014 0.473,0.014 4.203,0 7.732,-3.281 7.98,-7.534 0.404,-6.934 0.592,-13.299 0.592,-19.156 C 99.978,134.812 95.156,118.109 88.581,108.064 85.298,103.078 81.456,99.88 77.903,98.11 74.551,96.418 71.6,96.014 69.786,95.977 69.634,95.968 69.481,95.953 69.327,95.953 H 30.693 c -0.154,0 -0.305,0.015 -0.457,0.024 -1.814,0.036 -4.766,0.438 -8.123,2.131 -5.379,2.667 -11.176,8.502 -15.234,18.842 -4.108,10.379 -6.863,25.384 -6.879,48.044 0,5.856 0.189,12.224 0.596,19.158 0.248,4.251 3.775,7.532 7.98,7.532 z"
       id="path951" /><circle
       cx="50.009998"
       cy="67.753998"
       r="22.5"
       id="circle953" /><path
       d="m 301.781,116.161 h 21.358 c 2.137,-2.474 3.438,-5.69 3.438,-9.215 0,-7.796 -6.32,-14.118 -14.115,-14.118 -7.799,0 -14.117,6.321 -14.117,14.118 -0.001,3.525 1.3,6.74 3.436,9.215 z"
       id="path955" /><path
       d="m 277.355,138.807 c 1.184,2.675 2.822,5.985 6.002,8.602 0,0.001 0.002,0.003 0.004,0.004 v 10e-4 c 0.01,0.008 0.02,0.014 0.029,0.021 1.73,1.397 4.164,2.555 6.953,2.555 0.012,0 0.023,0 0.035,0 0.092,0 0.193,-0.002 0.322,-0.006 1.258,-0.03 2.557,-0.391 3.623,-0.994 1.074,-0.598 1.908,-1.384 2.543,-2.175 0.068,-0.086 0.127,-0.172 0.191,-0.259 v 7.055 73.369 c 0,4.285 3.475,7.757 7.758,7.757 4.283,0 7.758,-3.472 7.758,-7.757 v -56.637 h 2.908 v 56.637 c 0,4.285 3.475,7.757 7.758,7.757 4.283,0 7.756,-3.472 7.756,-7.757 v -70.82 c 2.105,-0.482 4.74,-1.316 7.129,-3.549 1.615,-1.51 2.947,-3.846 3.256,-6.482 0.262,-2.051 0.387,-3.993 0.387,-5.826 0.004,-6.994 -1.832,-12.558 -4.924,-16.478 -2.434,-3.095 -5.646,-5.072 -9.008,-5.771 -0.527,-0.197 -1.092,-0.319 -1.688,-0.319 h -24.24 c -0.292,0 -0.575,0.037 -0.854,0.086 -1.201,0.142 -2.388,0.536 -3.377,1.137 -1.283,0.767 -2.227,1.774 -2.934,2.778 -1.4,2.028 -2.057,4.101 -2.619,6.177 -0.054,0.209 -0.101,0.42 -0.151,0.629 l -6.931,-14.948 c -0.291,-0.629 -1.037,-0.902 -1.666,-0.611 l -8.729,4.046 c -0.629,0.291 -0.9,1.038 -0.609,1.666 l 8.27,17.835 c 0.291,0.628 1.035,0.902 1.664,0.61 l 6.874,-3.186 c -0.374,1.962 -0.719,3.726 -1.136,4.996 -0.059,0.195 -0.117,0.374 -0.178,0.536 -0.579,-0.472 -1.317,-1.475 -1.971,-2.627 l -3.063,1.42 c -0.334,0.155 -0.686,0.232 -1.053,0.232 -0.975,0 -1.869,-0.571 -2.277,-1.455 l -3.844,-8.29 c -1.443,1.194 -2.17,3.138 -1.686,5.077 0.048,0.171 0.576,2.28 1.718,4.964 z m -0.845,-18.259 8.35,-3.87 6.068,13.091 -8.348,3.871 z m 10.287,13.299 c -0.201,-0.433 -0.012,-0.945 0.418,-1.146 0.434,-0.2 0.947,-0.013 1.147,0.42 0.201,0.433 0.012,0.945 -0.42,1.146 -0.432,0.2 -0.946,0.011 -1.145,-0.42 z"
       id="path957" /><rect
       x="353.97"
       y="100.004"
       transform="matrix(0.7071,-0.7071,0.7071,0.7071,27.2401,282.772)"
       width="1.972"
       height="17"
       id="rect959" /><rect
       x="360.59"
       y="93.384003"
       transform="matrix(0.7069,-0.7074,0.7074,0.7069,33.926,285.6314)"
       width="1.971"
       height="17"
       id="rect961" /><rect
       x="357.75101"
       y="81.832001"
       transform="matrix(0.7071,-0.7071,0.7071,0.7071,30.354,284.6117)"
       width="1.972"
       height="47.667"
       id="rect963" /></g></svg>
